<?xml version="1.0" standalone="no"?>
<!DOCTYPE svg PUBLIC "-//W3C//DTD SVG 20010904//EN"
 "http://www.w3.org/TR/2001/REC-SVG-20010904/DTD/svg10.dtd">
<svg version="1.0" xmlns="http://www.w3.org/2000/svg"
 width="346.000000pt" height="346.000000pt" viewBox="0 0 346.000000 346.000000"
 preserveAspectRatio="xMidYMid meet">

<g transform="translate(0.000000,346.000000) scale(0.100000,-0.100000)"
fill="#000000" stroke="none">
<path d="M1700 3448 c-25 -5 -76 -11 -115 -14 -132 -7 -157 -11 -166 -25 -5
-8 -9 -10 -9 -5 0 5 -8 2 -18 -7 -10 -9 -34 -22 -52 -29 -19 -6 -59 -30 -90
-53 -30 -23 -71 -47 -91 -54 -20 -6 -49 -25 -64 -41 -16 -17 -34 -30 -41 -30
-22 0 -82 -83 -89 -123 -4 -20 -13 -41 -20 -45 -25 -14 -65 -104 -65 -147 0
-28 -8 -52 -24 -74 -14 -19 -22 -40 -19 -52 3 -10 0 -26 -7 -34 -6 -8 -9 -19
-5 -24 3 -6 -1 -36 -9 -68 -20 -75 -20 -109 -5 -218 11 -84 13 -240 4 -256 -3
-3 -17 -9 -32 -12 -19 -4 -33 -16 -43 -39 -17 -37 -15 -72 5 -65 36 15 45 -46
19 -134 -21 -71 -27 -79 -36 -49 -6 21 -7 20 -2 -5 3 -16 7 -49 9 -72 4 -55
24 -115 42 -128 12 -9 12 -16 2 -40 -6 -17 -13 -24 -16 -17 -9 24 -25 12 -19
-14 4 -15 3 -23 -2 -20 -6 3 -15 -1 -21 -8 -8 -9 -8 -17 -2 -20 5 -3 11 0 14
6 3 10 7 10 20 -1 15 -12 17 -11 17 3 0 9 5 16 11 16 5 0 7 -5 3 -11 -3 -6 -2
-21 4 -32 5 -12 16 -49 23 -82 7 -33 16 -64 21 -69 11 -13 10 27 -2 143 -9 86
-8 102 15 195 36 139 95 423 95 452 0 13 5 24 11 24 7 0 9 -9 6 -21 -3 -12 -3
-18 0 -15 3 3 14 -6 25 -19 19 -24 19 -25 -4 -56 -16 -23 -19 -33 -10 -36 6
-3 12 -9 12 -14 0 -6 -4 -7 -10 -4 -5 3 -10 -4 -10 -16 0 -18 2 -19 15 -9 12
10 15 9 15 -4 0 -10 4 -15 10 -11 5 3 7 12 4 20 -3 7 4 23 15 34 l21 21 40
-26 c22 -15 40 -35 40 -45 0 -18 -65 -94 -81 -94 -9 0 -10 -11 -2 -32 6 -16
35 -17 50 -2 17 17 81 0 89 -23 3 -11 12 -17 20 -14 17 7 30 -14 15 -23 -7 -4
15 -8 48 -8 43 0 58 4 54 13 -2 6 0 15 6 18 10 7 90 26 126 30 11 1 36 7 55
14 83 26 94 25 108 -8 14 -30 9 -55 -9 -45 -13 9 -11 -6 5 -36 13 -25 11 -29
-16 -60 -64 -74 -81 -134 -53 -189 14 -26 14 -29 0 -24 -10 4 -15 0 -15 -10 0
-9 -4 -16 -10 -16 -5 0 -10 -4 -10 -10 0 -5 7 -10 15 -10 9 0 12 -6 8 -16 -4
-12 -14 -14 -44 -9 -31 5 -39 4 -39 -8 0 -8 -7 -17 -15 -21 -18 -6 -19 -29 -4
-54 9 -15 7 -31 -9 -76 -14 -39 -18 -65 -12 -80 10 -27 34 -48 51 -44 9 2 14
-7 15 -27 0 -16 4 -38 8 -47 5 -11 1 -27 -13 -46 -11 -16 -17 -33 -13 -38 4
-4 0 -3 -9 4 -13 10 -16 9 -16 -6 0 -9 7 -26 16 -36 9 -11 10 -16 4 -12 -7 4
-13 2 -13 -3 0 -6 6 -11 13 -11 8 0 7 -4 -3 -10 -13 -8 -12 -10 3 -10 20 0 22
-11 5 -28 -9 -9 -8 -12 6 -12 15 0 16 -3 6 -15 -9 -10 -9 -15 -1 -15 6 0 11
-5 11 -11 0 -8 -5 -7 -15 1 -13 11 -20 9 -39 -9 -23 -22 -23 -22 -29 -2 -3 12
-12 21 -21 21 -9 0 -16 6 -16 14 0 9 -7 12 -18 9 -14 -3 -23 5 -36 31 -9 20
-14 42 -11 49 4 6 0 3 -9 -7 -12 -15 -19 -16 -29 -8 -8 7 -17 9 -20 5 -7 -6
-11 4 -21 50 -5 20 -12 27 -29 26 -15 0 -17 -2 -7 -6 39 -15 32 -46 -8 -36
-38 9 -56 37 -29 46 6 2 3 3 -8 1 -20 -3 -87 48 -83 63 3 10 -30 73 -38 73 -3
0 -3 -15 1 -33 6 -30 6 -31 -9 -16 -10 9 -18 25 -19 37 -1 12 -5 22 -9 22 -11
0 -10 -26 1 -48 15 -31 33 -86 55 -172 12 -47 30 -96 41 -109 35 -43 139 -154
164 -175 13 -12 43 -39 66 -61 46 -43 55 -51 97 -78 15 -9 64 -47 107 -82 44
-36 84 -65 88 -65 4 0 21 -11 37 -23 28 -23 31 -23 87 -10 31 7 86 28 121 47
34 19 108 50 163 70 227 82 409 196 522 329 52 61 164 268 179 332 4 17 10 32
14 35 3 3 16 43 29 90 36 136 52 194 58 210 4 8 6 18 5 22 -1 3 -4 33 -6 65
-3 32 -10 59 -15 61 -6 2 -11 18 -11 35 -1 39 -38 125 -39 90 -1 -20 -4 -21
-31 -12 -16 6 -30 18 -30 26 0 9 6 13 14 10 21 -8 27 3 11 20 -8 8 -23 13 -33
11 -21 -4 -18 -44 6 -71 12 -14 13 -20 4 -26 -8 -4 -10 -15 -6 -26 6 -15 4
-17 -10 -12 -12 5 -15 3 -9 -6 4 -6 6 -20 5 -29 -2 -10 2 -18 7 -18 6 0 11 -9
11 -20 0 -11 -4 -20 -10 -20 -5 0 -10 9 -10 19 0 11 -4 23 -10 26 -5 3 -10 -1
-10 -9 0 -9 -9 -21 -20 -28 -11 -7 -20 -23 -20 -36 0 -12 -6 -25 -14 -28 -8
-3 -12 -13 -9 -25 4 -15 2 -18 -11 -13 -16 6 -24 -11 -8 -18 12 -5 72 -107 72
-122 0 -8 -9 -16 -20 -19 -12 -3 -20 -14 -20 -26 0 -22 14 -28 25 -10 4 5 12
8 18 6 14 -4 20 -77 6 -77 -5 0 -9 -11 -9 -24 0 -13 -5 -26 -11 -28 -14 -5 5
-48 21 -48 11 0 38 56 43 87 2 12 6 26 10 29 4 4 7 20 7 36 0 22 4 28 18 26
12 -2 17 4 18 22 2 55 4 70 13 70 12 0 5 -84 -9 -110 -5 -10 -10 -28 -10 -39
0 -12 -4 -21 -8 -21 -5 0 -14 -22 -21 -49 -15 -58 -83 -193 -100 -199 -6 -2 0
18 14 44 29 54 32 89 9 98 -9 4 -19 4 -22 1 -3 -3 0 -5 7 -5 7 0 9 -5 6 -10
-4 -6 -10 -8 -15 -5 -5 3 -14 -5 -21 -17 -7 -13 -18 -26 -25 -31 -7 -4 -11
-14 -8 -22 4 -8 1 -15 -5 -15 -7 0 -17 -13 -22 -29 -9 -25 -15 -29 -45 -28
-21 1 -34 6 -34 14 0 7 -7 13 -16 13 -11 0 -13 6 -9 19 10 31 -32 39 -59 11
-20 -22 -20 -22 -1 -16 34 12 39 12 43 -6 2 -13 -3 -18 -16 -18 -20 0 -36 -25
-26 -41 3 -5 0 -9 -5 -9 -6 0 -11 5 -11 10 0 6 -6 10 -14 10 -8 0 -16 -16 -20
-40 -4 -24 -14 -43 -25 -50 -28 -15 -31 -13 -31 18 0 21 -2 24 -10 12 -5 -8
-10 -25 -10 -36 0 -25 -51 -65 -58 -45 -2 6 -9 8 -14 5 -6 -4 -17 1 -24 11
-15 20 -44 14 -44 -10 0 -10 10 -15 30 -15 l30 0 -32 -48 c-18 -27 -36 -45
-39 -40 -4 6 -23 5 -47 -2 -32 -8 -40 -14 -35 -27 5 -13 2 -15 -16 -10 -13 3
-47 1 -76 -6 -40 -8 -63 -8 -91 1 -30 9 -40 9 -46 -1 -6 -8 -10 -5 -14 11 -4
14 -12 21 -20 18 -8 -3 -30 6 -50 19 -33 23 -54 30 -76 26 -8 -1 -12 25 -8 44
7 29 5 52 -6 69 -7 10 -10 24 -7 32 5 14 -39 30 -55 20 -5 -3 -16 2 -23 11
-12 14 -11 15 6 10 11 -4 27 -2 35 3 13 8 13 10 -1 10 -19 0 -31 23 -23 45 5
11 16 13 51 8 44 -6 45 -5 38 18 -4 13 -11 26 -16 29 -5 3 -6 23 -2 44 5 33 8
37 29 32 18 -5 24 -2 24 10 0 13 6 15 30 11 17 -4 30 -2 30 3 0 6 70 9 183 8
100 -1 187 0 192 3 13 7 58 5 72 -4 16 -10 26 9 18 33 -6 18 -3 20 19 14 23
-6 26 -3 26 23 0 15 -11 45 -25 66 -20 29 -32 37 -56 37 -17 0 -39 -5 -49 -10
-14 -7 -31 -6 -62 7 -51 19 -109 19 -177 -1 -51 -15 -81 -10 -138 22 -12 7
-37 12 -55 12 -18 0 -40 5 -48 10 -12 7 -8 11 16 16 19 3 37 16 44 30 7 13 16
21 20 19 8 -5 24 24 22 38 -1 4 5 7 13 7 7 0 18 7 23 16 8 13 18 15 55 10 45
-7 76 -26 42 -26 -9 0 -14 -4 -11 -9 3 -5 15 -7 26 -4 11 3 27 0 35 -7 8 -6
19 -9 24 -6 6 4 15 -2 20 -13 14 -25 81 -38 96 -19 5 8 29 15 53 15 70 3 82 9
68 38 -8 18 -16 23 -30 19 -15 -5 -18 -2 -13 15 3 11 1 21 -5 21 -6 0 -7 21
-3 58 6 56 4 63 -34 134 -22 42 -37 79 -33 83 4 3 -3 14 -15 23 -17 13 -20 21
-13 32 8 13 10 12 10 -2 0 -10 4 -18 9 -18 12 0 -4 61 -30 119 -12 25 -18 56
-16 75 4 29 5 29 12 8 7 -22 9 -22 26 -6 20 18 40 11 22 -7 -24 -24 34 -119
72 -119 9 0 28 -6 43 -13 15 -8 45 -15 66 -16 21 -1 46 -6 55 -10 33 -17 69
-21 74 -9 2 7 3 4 1 -7 -1 -11 3 -28 10 -37 12 -16 14 -16 29 3 9 10 17 30 17
44 0 20 6 25 38 31 20 4 49 14 64 22 22 13 25 19 17 34 -14 26 7 95 37 123 13
12 24 27 24 34 0 15 6 14 35 -5 15 -10 26 -29 30 -55 4 -22 13 -46 22 -54 9
-9 12 -23 8 -35 -4 -12 -1 -28 6 -37 11 -13 10 -17 -4 -28 -10 -7 -15 -19 -11
-28 5 -15 8 -15 30 1 23 16 24 21 19 117 l-4 100 11 -70 c6 -38 11 -95 12
-127 1 -58 9 -67 20 -23 3 13 18 36 32 50 17 18 23 31 19 43 -4 9 -10 38 -12
63 -4 35 -1 49 13 64 19 18 19 18 22 -8 2 -15 8 -27 13 -27 5 0 9 -13 9 -28 0
-15 9 -45 20 -67 11 -21 16 -41 11 -44 -5 -4 -11 -57 -14 -120 -3 -92 -8 -115
-21 -123 -19 -11 -22 -38 -3 -38 7 0 23 7 36 16 18 13 25 14 31 4 11 -18 17
14 18 105 1 89 -3 84 -14 -20 -7 -69 -7 -70 -16 -30 -5 24 -5 58 1 85 10 46 5
127 -9 145 -7 9 -35 123 -47 197 -6 32 22 51 38 27 6 -10 9 -10 9 -2 0 7 7 10
16 6 13 -5 12 1 -5 35 -16 31 -28 41 -48 44 l-28 3 2 105 c1 58 2 159 3 225 2
91 -2 132 -15 170 -10 27 -18 59 -20 72 -1 12 -9 33 -18 46 -9 14 -19 39 -24
56 -4 17 -11 30 -14 29 -3 -2 -14 3 -23 11 -13 11 -16 23 -11 49 4 24 3 32 -5
27 -7 -4 -14 2 -17 14 -3 12 -13 21 -24 21 -13 0 -19 7 -20 23 -3 84 -6 107
-12 113 -4 4 -7 -3 -7 -15 0 -12 -4 -19 -10 -16 -5 3 -10 23 -10 44 0 25 -7
44 -20 56 -19 17 -19 17 -14 -16 4 -22 0 -41 -10 -54 -14 -18 -15 -18 -16 -2
0 9 -7 17 -16 17 -12 0 -15 9 -13 40 4 51 -19 75 -88 93 -49 13 -52 13 -59 -7
-6 -18 -8 -16 -11 12 -3 24 -9 32 -24 32 -11 0 -22 7 -25 15 -9 23 -66 52
-178 90 -101 34 -110 35 -243 34 -76 -1 -158 -6 -183 -11z m897 -380 c-3 -8
-6 -5 -6 6 -1 11 2 17 5 13 3 -3 4 -12 1 -19z m-1647 -126 c0 -14 -39 -90 -50
-97 -18 -11 -11 26 10 52 11 14 20 32 20 39 0 8 5 14 10 14 6 0 10 -4 10 -8z
m938 -28 c23 -5 32 -3 32 6 0 9 5 8 18 -3 21 -19 33 -13 25 11 -4 14 -3 14 5
3 6 -8 15 -10 23 -6 9 6 11 3 6 -9 -5 -13 -3 -15 11 -7 12 6 23 6 33 -1 11 -8
10 -8 -6 -3 -11 3 -16 3 -12 -1 4 -5 29 -9 55 -11 37 -2 51 -8 65 -28 10 -14
22 -23 27 -20 17 10 70 -56 70 -86 0 -17 -4 -28 -9 -24 -5 3 -13 0 -16 -6 -5
-7 1 -9 16 -7 13 1 24 10 25 18 2 33 5 34 19 1 19 -42 19 -52 1 -45 -8 3 -17
1 -21 -5 -3 -6 1 -11 9 -11 21 0 21 -29 1 -37 -14 -5 -14 -8 1 -25 17 -18 17
-20 -8 -45 l-26 -26 25 -23 c13 -12 24 -26 24 -31 -1 -4 15 -8 34 -9 42 -1 58
-13 27 -21 -25 -6 -30 -23 -7 -23 8 0 15 -7 15 -15 0 -8 7 -15 15 -15 9 0 27
-11 41 -25 13 -13 27 -25 29 -25 3 0 10 0 15 0 6 0 10 -7 10 -17 0 -9 3 -13 7
-10 12 13 33 -15 33 -44 0 -24 -4 -29 -25 -29 -14 0 -25 5 -25 10 0 6 -7 10
-15 10 -8 0 -15 5 -15 10 0 6 -11 10 -25 10 -17 0 -25 -6 -25 -17 -1 -17 -1
-17 -14 0 -10 13 -15 15 -18 5 -3 -7 -16 -14 -29 -15 -58 -3 -135 -16 -145
-25 -6 -4 -31 -10 -54 -12 -23 -2 -45 -8 -49 -14 -3 -6 -18 -13 -31 -17 -22
-5 -25 -12 -25 -44 0 -32 -10 -49 -55 -101 l-55 -63 -1 -91 c0 -50 -4 -101 -8
-112 -5 -16 1 -30 24 -55 16 -19 30 -41 30 -51 0 -27 33 -89 44 -84 6 2 10 8
9 14 -1 5 9 9 22 8 14 0 26 -5 26 -11 1 -10 1 -84 0 -97 -2 -14 -86 -8 -108 7
-17 12 -23 12 -27 2 -5 -9 -7 -9 -12 1 -5 10 -8 10 -18 -2 -18 -22 -70 -30
-86 -11 -7 8 -23 15 -37 15 -16 0 -22 4 -17 12 5 7 3 8 -6 3 -7 -4 -16 -2 -21
6 -12 19 -11 89 1 89 5 0 13 16 19 36 5 19 21 44 35 55 14 11 26 27 26 35 0 8
5 14 11 14 5 0 7 5 4 10 -4 6 -10 8 -15 5 -14 -8 -18 7 -24 73 -3 38 -1 60 5
56 6 -3 8 19 6 56 -4 62 -14 80 -49 80 -9 0 -20 9 -23 20 -3 11 -12 20 -19 20
-21 0 -37 22 -26 35 13 16 2 45 -16 45 -8 0 -14 -7 -14 -16 0 -13 -3 -14 -15
-4 -8 7 -13 16 -10 20 9 14 -48 42 -123 61 -59 14 -78 15 -93 6 -16 -10 -21
-9 -29 3 -5 8 -10 11 -10 6 0 -5 -13 6 -30 24 -16 18 -30 38 -30 42 0 22 21
46 45 52 14 4 25 11 25 16 0 6 8 10 19 10 11 0 21 9 24 21 3 12 12 19 19 17
15 -6 37 20 38 44 0 9 5 18 10 20 6 2 2 13 -10 25 -24 26 -25 33 -5 33 8 0 15
9 15 20 0 12 9 30 20 42 11 12 20 28 20 35 0 8 5 11 10 8 6 -3 10 -2 10 2 0 5
21 17 46 28 38 15 44 22 40 40 -4 15 4 32 27 57 25 27 29 38 20 47 -7 6 -18
12 -25 12 -7 1 1 4 17 8 28 7 51 4 119 -14 26 -7 28 -6 21 16 -7 21 -6 22 9
10 25 -21 49 4 42 43 -3 17 -2 25 2 19 4 -7 22 -16 40 -19z m792 22 c0 -3 -4
-8 -10 -11 -5 -3 -10 -1 -10 4 0 6 5 11 10 11 6 0 10 -2 10 -4z m-1023 -112
c-3 -3 -12 -4 -19 -1 -8 3 -5 6 6 6 11 1 17 -2 13 -5z m-60 -71 c-3 -10 -5 -4
-5 12 0 17 2 24 5 18 2 -7 2 -21 0 -30z m-27 -3 c0 -5 -4 -10 -10 -10 -5 0
-10 5 -10 10 0 6 5 10 10 10 6 0 10 -4 10 -10z m835 -554 c10 -7 27 -11 37 -8
12 3 18 -1 18 -12 0 -10 -4 -14 -10 -11 -6 3 -10 -5 -10 -19 0 -13 6 -27 13
-29 6 -3 -3 -6 -21 -6 -21 -1 -31 -5 -26 -12 4 -8 0 -8 -15 0 -12 7 -26 9 -31
6 -6 -3 -15 -3 -20 0 -14 8 -158 10 -166 2 -3 -3 -12 -3 -20 0 -8 3 -14 1 -14
-5 0 -6 -13 -15 -29 -20 -23 -8 -32 -7 -42 4 -6 8 -7 14 -2 14 6 0 23 11 39
25 16 14 31 25 34 26 35 5 65 13 115 29 33 10 74 21 90 23 17 2 33 5 36 6 3 0
14 -5 24 -13z m-947 -46 c23 -7 42 -17 42 -22 0 -18 -51 -28 -93 -18 -23 5
-58 10 -77 10 -33 0 -60 14 -60 31 0 19 124 18 188 -1z m1389 -22 c-3 -7 -5
-2 -5 12 0 14 2 19 5 13 2 -7 2 -19 0 -25z m-1283 -30 c-3 -5 2 -8 12 -7 20 3
84 -21 84 -32 0 -7 -36 -19 -55 -19 -5 0 -25 14 -44 30 -18 17 -37 30 -40 30
-4 0 -7 8 -8 19 -1 17 0 18 28 4 16 -8 26 -19 23 -25z m-284 22 c0 -5 -5 -10
-11 -10 -5 0 -7 5 -4 10 3 6 8 10 11 10 2 0 4 -4 4 -10z m1427 -92 c-3 -8 -6
-5 -6 6 -1 11 2 17 5 13 3 -3 4 -12 1 -19z m-1165 -60 c-13 -13 -76 -22 -69
-11 4 6 11 22 17 38 l10 27 25 -24 c13 -12 21 -26 17 -30z m-193 0 c1 -11 -11
-10 -28 1 -13 8 -13 12 -1 26 13 16 15 16 21 -2 4 -10 8 -21 8 -25z m334 0
c-3 -18 -11 -41 -18 -50 -11 -16 -13 -16 -31 -2 -13 11 -15 17 -6 20 6 3 12
13 12 21 0 15 27 42 42 43 4 0 5 -15 1 -32z m492 -10 c8 -32 6 -33 -30 -16
-29 13 -32 26 -7 44 20 15 28 9 37 -28z m169 23 c9 -14 -4 -41 -20 -41 -8 0
-14 10 -14 25 0 25 23 35 34 16z m-875 -54 c26 -11 29 -16 18 -25 -15 -13 -94
-9 -88 4 2 5 6 15 8 22 6 16 23 15 62 -1z m795 -35 c25 3 50 0 59 -7 22 -16
21 -25 -2 -25 -11 0 -22 -4 -25 -9 -3 -4 -28 3 -56 17 -43 21 -48 27 -38 40
12 13 13 13 16 -3 3 -14 11 -17 46 -13z m-889 -22 c3 -5 -1 -10 -9 -10 -9 0
-16 5 -16 10 0 6 4 10 9 10 6 0 13 -4 16 -10z m-569 -24 c17 -17 18 -76 3
-131 l-11 -39 -14 24 c-14 26 -19 141 -7 153 9 10 13 9 29 -7z m1581 -56 c-1
-11 -4 -20 -8 -20 -4 0 -9 9 -12 20 -3 13 0 20 8 20 8 0 13 -9 12 -20z m-725
-229 c21 -24 14 -31 -32 -31 -34 0 -37 2 -32 25 5 31 40 34 64 6z m1003 -101
c-3 -5 -12 -10 -18 -10 -7 0 -6 4 3 10 19 12 23 12 15 0z m-60 -29 c3 -5 1
-12 -5 -16 -5 -3 -10 1 -10 9 0 18 6 21 15 7z m152 -63 c-3 -8 -6 -5 -6 6 -1
11 2 17 5 13 3 -3 4 -12 1 -19z m-1177 -22 c0 -3 -4 -8 -10 -11 -5 -3 -10 -1
-10 4 0 6 5 11 10 11 6 0 10 -2 10 -4z m-20 -55 c0 -8 -7 -11 -20 -8 -10 3
-21 0 -23 -7 -3 -7 -8 -8 -15 -1 -6 6 -7 19 -2 32 8 19 12 20 34 10 14 -7 26
-18 26 -26z m-550 -241 c0 -5 -2 -10 -4 -10 -3 0 -8 5 -11 10 -3 6 -1 10 4 10
6 0 11 -4 11 -10z m1045 -500 c-3 -5 -13 -10 -21 -10 -8 0 -12 5 -9 10 3 6 13
10 21 10 8 0 12 -4 9 -10z m-50 -10 c3 -6 -1 -13 -10 -16 -19 -8 -30 0 -20 15
8 14 22 14 30 1z m-62 -20 c7 0 4 -7 -7 -15 -14 -11 -24 -12 -39 -4 -16 9 -17
13 -6 20 8 5 20 7 27 4 8 -3 19 -5 25 -5z"/>
<path d="M1790 1853 c0 -4 5 -15 10 -23 8 -13 10 -13 10 2 0 9 -4 20 -10 23
-5 3 -10 3 -10 -2z"/>
<path d="M2900 2030 c0 -5 5 -10 11 -10 5 0 7 5 4 10 -3 6 -8 10 -11 10 -2 0
-4 -4 -4 -10z"/>
<path d="M2918 1981 c-5 -18 -8 -52 -8 -75 1 -33 3 -37 11 -23 5 9 9 43 7 75
-3 52 -4 54 -10 23z"/>
<path d="M712 1910 c0 -19 2 -27 5 -17 2 9 2 25 0 35 -3 9 -5 1 -5 -18z"/>
<path d="M975 1921 c-3 -5 -1 -12 5 -16 15 -9 12 -55 -4 -55 -19 0 -31 -51
-14 -61 9 -6 10 -9 1 -9 -7 0 -10 -6 -8 -12 2 -7 0 -29 -4 -48 l-9 -35 -2 40
-2 40 -10 -35 c-5 -19 -8 -51 -6 -72 2 -21 0 -38 -5 -38 -5 0 -5 -10 -1 -22 3
-11 10 -67 15 -122 11 -138 19 -177 33 -170 6 3 3 -1 -6 -9 -22 -18 -23 -34
-2 -55 11 -11 13 -17 5 -20 -6 -2 -9 -8 -5 -13 10 -16 21 -9 34 20 6 16 19 32
27 35 8 4 13 13 9 21 -3 8 -1 17 4 20 20 12 9 25 -20 25 -25 0 -30 4 -30 25 0
28 3 29 28 16 9 -5 24 -12 33 -15 12 -3 16 -14 15 -40 -2 -26 1 -36 16 -39 12
-4 16 -11 11 -22 -4 -13 -2 -16 8 -13 8 3 14 10 14 16 0 5 3 14 8 18 10 11 9
26 -2 19 -13 -8 -10 38 4 48 7 4 5 10 -4 16 -11 7 -11 9 0 13 17 6 13 89 -4
100 -9 6 -8 10 2 17 15 10 6 91 -10 91 -5 0 -9 5 -9 11 0 6 7 9 15 5 14 -5 20
9 16 42 -1 6 2 12 7 12 4 0 14 -6 21 -12 10 -11 12 -8 9 12 -2 17 -9 25 -21
24 -11 -1 -17 5 -17 20 0 11 -3 31 -6 44 -5 18 -3 21 10 16 11 -4 16 -1 16 10
0 10 -9 16 -24 16 -14 0 -28 5 -31 10 -3 6 -12 10 -18 10 -8 -1 -7 -5 3 -13
18 -14 15 -51 -6 -68 -17 -14 -19 -12 -28 21 -5 16 -4 20 2 12 7 -10 11 -10
21 2 11 13 7 16 -24 22 -36 6 -76 45 -54 53 6 2 16 -2 22 -8 17 -17 31 -13 16
5 -7 9 -12 29 -11 46 2 29 -22 66 -33 49z m55 -222 c0 -10 -4 -19 -9 -19 -5 0
-8 11 -7 24 1 28 16 24 16 -5z m-54 -47 c-14 -15 -15 -13 -6 18 6 19 11 37 11
40 1 3 4 -6 6 -19 3 -13 -2 -30 -11 -39z"/>
<path d="M960 1870 c0 -5 5 -10 11 -10 5 0 7 5 4 10 -3 6 -8 10 -11 10 -2 0
-4 -4 -4 -10z"/>
<path d="M1134 1809 c-10 -17 13 -36 27 -22 12 12 4 33 -11 33 -5 0 -12 -5
-16 -11z"/>
<path d="M2921 1794 c0 -11 3 -14 6 -6 3 7 2 16 -1 19 -3 4 -6 -2 -5 -13z"/>
<path d="M2531 1768 c-5 -13 -8 -25 -6 -28 1 -3 5 -13 8 -23 6 -15 9 -16 21
-5 10 9 11 20 4 37 -6 17 -5 27 4 33 10 6 8 8 -5 8 -10 0 -21 -10 -26 -22z"/>
<path d="M1320 1750 c0 -5 5 -10 10 -10 6 0 10 5 10 10 0 6 -4 10 -10 10 -5 0
-10 -4 -10 -10z"/>
<path d="M716 1705 c6 -48 10 -63 17 -54 2 2 -2 27 -9 54 l-13 50 5 -50z"/>
<path d="M2751 1734 c0 -11 3 -14 6 -6 3 7 2 16 -1 19 -3 4 -6 -2 -5 -13z"/>
<path d="M2698 1703 c7 -3 16 -2 19 1 4 3 -2 6 -13 5 -11 0 -14 -3 -6 -6z"/>
<path d="M2793 1703 c-7 -2 -13 -15 -13 -28 0 -25 25 -52 34 -36 4 5 1 13 -5
16 -6 4 -8 18 -5 31 4 13 5 24 4 23 -2 0 -9 -3 -15 -6z"/>
<path d="M2542 1677 c-8 -10 -11 -25 -7 -38 7 -20 8 -20 17 -5 5 9 8 26 6 38
-3 19 -4 20 -16 5z"/>
<path d="M1130 1610 c0 -5 5 -10 10 -10 6 0 10 5 10 10 0 6 -4 10 -10 10 -5 0
-10 -4 -10 -10z"/>
<path d="M2560 1606 c0 -9 -6 -16 -14 -16 -13 0 -26 -20 -26 -39 0 -10 67 -8
76 2 10 10 -8 59 -23 65 -7 2 -13 -3 -13 -12z"/>
<path d="M2146 1545 c-3 -8 -1 -15 4 -15 5 0 22 -18 36 -40 33 -49 47 -52 31
-6 -15 43 -62 83 -71 61z"/>
<path d="M2232 1398 c21 -63 28 -78 38 -78 14 0 13 18 -6 67 -20 52 -48 61
-32 11z"/>
<path d="M1318 1353 c-20 -5 -23 -20 -8 -43 8 -13 11 -12 24 5 24 32 18 45
-16 38z"/>
<path d="M2090 1350 c-11 -7 -4 -10 28 -10 23 0 42 5 42 10 0 13 -50 13 -70 0z"/>
<path d="M2561 1344 c0 -11 3 -14 6 -6 3 7 2 16 -1 19 -3 4 -6 -2 -5 -13z"/>
<path d="M916 1325 c4 -8 8 -15 10 -15 2 0 4 7 4 15 0 8 -4 15 -10 15 -5 0 -7
-7 -4 -15z"/>
<path d="M2075 1320 c3 -5 8 -10 11 -10 2 0 4 5 4 10 0 6 -5 10 -11 10 -5 0
-7 -4 -4 -10z"/>
<path d="M2145 1310 c3 -5 8 -10 11 -10 2 0 4 5 4 10 0 6 -5 10 -11 10 -5 0
-7 -4 -4 -10z"/>
<path d="M970 1180 c-8 -5 -11 -12 -7 -16 4 -4 13 -2 19 4 15 15 7 24 -12 12z"/>
<path d="M1385 1050 c-3 -5 3 -10 15 -10 12 0 18 5 15 10 -3 6 -10 10 -15 10
-5 0 -12 -4 -15 -10z"/>
<path d="M1756 1042 c-17 -17 -3 -32 30 -32 23 0 34 4 32 12 -5 13 -53 29 -62
20z"/>
<path d="M2080 987 c0 -13 -6 -29 -12 -35 -10 -10 -10 -17 0 -33 7 -11 10 -29
7 -40 -5 -14 -3 -17 9 -13 12 5 16 -1 16 -22 0 -45 13 -57 33 -34 9 11 17 26
17 33 0 8 3 8 9 -2 13 -21 31 -4 31 30 0 26 -3 29 -21 24 -19 -6 -21 -4 -16
14 4 16 1 21 -15 21 -17 0 -18 3 -8 15 7 8 16 13 20 10 9 -6 24 45 15 53 -3 3
-5 -2 -5 -10 0 -25 -29 -30 -42 -8 -17 27 -38 25 -38 -3z"/>
<path d="M1838 976 c-5 -22 -3 -24 15 -14 11 5 16 13 11 17 -5 3 -12 10 -15
14 -4 4 -9 -3 -11 -17z"/>
<path d="M2390 990 c0 -5 5 -10 10 -10 6 0 10 5 10 10 0 6 -4 10 -10 10 -5 0
-10 -4 -10 -10z"/>
<path d="M1723 968 c1 -6 -8 -14 -21 -17 -20 -5 -16 -8 22 -17 47 -11 57 -6
31 16 -8 7 -12 16 -9 21 3 5 -2 9 -10 9 -9 0 -15 -5 -13 -12z"/>
<path d="M1230 956 c0 -9 5 -16 10 -16 6 0 10 4 10 9 0 6 -4 13 -10 16 -5 3
-10 -1 -10 -9z"/>
<path d="M1645 940 c-3 -5 -1 -10 4 -10 6 0 11 5 11 10 0 6 -2 10 -4 10 -3 0
-8 -4 -11 -10z"/>
<path d="M1685 890 c4 -6 11 -8 16 -5 14 9 11 15 -7 15 -8 0 -12 -5 -9 -10z"/>
<path d="M975 805 c0 -47 3 -85 6 -85 8 0 41 152 34 158 -3 3 -13 7 -23 8 -15
3 -17 -7 -17 -81z"/>
<path d="M1560 881 c0 -5 10 -11 21 -14 18 -5 21 -11 15 -40 -5 -29 -3 -35 13
-40 11 -3 25 1 32 9 6 8 17 14 25 14 18 0 26 17 20 38 -5 14 -14 17 -47 14
-36 -4 -41 -2 -36 12 5 12 0 16 -18 16 -14 0 -25 -4 -25 -9z"/>
<path d="M1856 856 c-23 -36 -20 -46 13 -46 22 0 28 4 26 18 -2 9 -4 18 -5 20
-2 1 -3 6 -4 11 -3 21 -14 20 -30 -3z"/>
<path d="M1920 804 c0 -8 5 -12 10 -9 6 3 10 10 10 16 0 5 -4 9 -10 9 -5 0
-10 -7 -10 -16z"/>
<path d="M1955 810 c-3 -5 -2 -10 4 -10 5 0 13 5 16 10 3 6 2 10 -4 10 -5 0
-13 -4 -16 -10z"/>
<path d="M958 487 c2 -51 7 -105 12 -122 6 -21 8 3 6 75 -1 58 -6 113 -11 122
-7 11 -9 -13 -7 -75z"/>
<path d="M2715 419 c-11 -17 1 -21 15 -4 8 9 8 15 2 15 -6 0 -14 -5 -17 -11z"/>
<path d="M1414 247 c-47 -30 -141 -115 -133 -121 11 -8 100 -46 108 -46 5 0
13 -17 18 -38 l9 -37 240 -3 c226 -2 242 -1 258 17 16 18 16 21 -3 56 -23 43
-128 165 -142 165 -5 0 -9 -6 -9 -14 0 -7 -11 -16 -25 -18 -21 -4 -23 -3 -14
9 16 19 10 22 -49 29 -47 5 -52 4 -52 -15 0 -11 9 -22 22 -27 37 -11 -5 -26
-60 -20 -26 2 -50 5 -54 5 -12 1 -9 31 2 31 6 0 10 7 10 15 0 8 -4 15 -10 15
-5 0 -10 -4 -10 -10 0 -20 -21 -9 -30 15 -12 31 -13 31 -76 -8z"/>
<path d="M987 250 c-3 -11 -1 -23 4 -26 5 -3 9 6 9 20 0 31 -6 34 -13 6z"/>
</g>
</svg>
