<?xml version="1.0" standalone="no"?>
<!DOCTYPE svg PUBLIC "-//W3C//DTD SVG 20010904//EN"
 "http://www.w3.org/TR/2001/REC-SVG-20010904/DTD/svg10.dtd">
<svg version="1.0" xmlns="http://www.w3.org/2000/svg"
 width="300.000000pt" height="300.000000pt" viewBox="0 0 300.000000 300.000000"
 preserveAspectRatio="xMidYMid meet">
<metadata>
Created by potrace 1.10, written by Peter Selinger 2001-2011
</metadata>
<g transform="translate(0.000000,300.000000) scale(0.100000,-0.100000)"
fill="#000000" stroke="none">
<path d="M1569 2996 c-5 -5 -116 -16 -204 -21 -33 -2 -69 -5 -80 -6 -11 -1
-24 0 -30 2 -6 2 -12 0 -14 -6 -4 -11 -69 -44 -86 -45 -6 0 -37 -20 -70 -44
-33 -25 -69 -47 -82 -51 -12 -3 -34 -16 -49 -30 -15 -14 -33 -25 -40 -25 -19
0 -74 -78 -74 -105 0 -12 -9 -30 -20 -40 -11 -10 -20 -24 -20 -32 0 -7 -7 -13
-15 -13 -8 0 -14 -3 -13 -7 5 -25 -17 -127 -33 -147 -11 -13 -16 -31 -13 -40
3 -8 2 -21 -3 -28 -4 -7 -8 -22 -9 -33 -1 -11 -7 -47 -14 -80 -10 -49 -10 -78
2 -165 8 -58 12 -133 10 -167 -4 -59 -5 -61 -30 -60 -23 2 -30 -6 -54 -53 -15
-30 -30 -74 -34 -98 -6 -42 6 -148 32 -274 13 -67 13 -68 -12 -95 -25 -27 -27
-50 -8 -115 8 -28 94 -73 94 -49 0 6 -6 11 -14 11 -7 0 -25 11 -40 25 -32 30
-37 96 -8 117 21 15 21 41 -1 153 -12 62 -13 102 -6 184 5 58 12 107 14 110 3
3 15 -5 27 -16 l21 -21 -27 -80 c-29 -88 -31 -117 -14 -174 17 -57 26 -28 15
52 -8 58 -7 73 7 94 9 14 16 36 16 50 0 14 5 28 10 31 18 11 11 33 -20 63 -30
31 -38 52 -20 52 6 0 10 -6 10 -12 0 -7 8 -3 18 10 23 30 34 18 26 -27 -7 -34
-6 -35 11 -21 14 12 16 24 11 68 -4 29 -3 51 1 49 9 -6 7 87 -2 111 -3 8 -1
30 6 49 6 19 7 42 3 51 -4 9 -7 28 -6 42 0 16 -1 19 -4 7 -7 -22 -24 -12 -24
13 0 11 11 52 24 92 13 40 29 97 36 126 7 28 18 55 25 60 27 15 58 91 52 128
-4 24 -2 32 5 28 7 -5 9 0 5 15 -3 14 2 35 14 54 10 18 19 29 19 24 0 -4 24
16 53 45 28 29 74 64 102 78 27 14 56 33 65 42 18 20 87 37 75 18 -6 -9 -3 -9
12 -1 11 6 23 7 27 4 3 -3 6 1 6 9 0 11 -7 14 -25 10 -18 -3 -25 0 -25 12 0
10 8 16 23 15 12 0 31 2 42 4 11 3 36 6 55 6 26 1 31 4 20 11 -27 17 -1 22 50
9 43 -11 53 -11 60 0 4 8 15 11 25 8 9 -4 32 0 52 8 19 8 46 15 59 15 13 0 24
5 24 10 0 10 -13 14 -21 6z m-760 -492 c-20 -40 -39 -57 -39 -35 0 13 31 84
44 100 22 28 19 -19 -5 -65z"/>
<path d="M1725 2991 c10 -18 68 -41 87 -35 11 3 18 0 18 -8 0 -8 12 -19 28
-25 15 -7 39 -22 54 -34 15 -13 31 -19 35 -15 4 4 -6 18 -22 31 -35 28 -27 32
16 9 23 -11 30 -21 26 -35 -3 -11 0 -19 7 -19 7 0 25 -13 40 -29 19 -20 34
-27 51 -23 16 3 25 0 25 -8 0 -7 9 -2 20 11 10 13 19 18 20 12 0 -7 -6 -13
-12 -13 -8 -1 -7 -5 4 -14 10 -7 15 -20 12 -33 -8 -28 50 -93 60 -68 9 24 7
37 -4 30 -17 -11 -32 5 -19 21 9 11 8 14 -5 14 -9 0 -16 5 -16 11 0 5 4 8 9 4
5 -3 12 -1 16 5 11 18 35 11 46 -14 9 -19 8 -31 -4 -55 -9 -17 -11 -31 -6 -31
6 0 9 -7 7 -16 -2 -10 3 -19 10 -21 7 -3 12 5 12 22 0 14 4 24 9 20 6 -3 8 10
5 32 -4 31 -3 35 6 20 13 -20 5 -93 -11 -103 -6 -3 -5 -11 2 -20 6 -8 8 -14 4
-14 -4 0 -2 -6 4 -14 6 -8 11 -18 10 -22 -3 -20 14 -54 30 -59 10 -3 24 -21
31 -40 8 -19 17 -35 21 -35 4 0 9 -10 11 -22 2 -13 8 -21 13 -20 6 2 9 8 7 14
-1 5 2 7 8 3 5 -3 7 -27 5 -53 -4 -32 -3 -41 4 -27 17 39 28 -144 18 -283 -3
-40 -9 -77 -12 -82 -3 -6 -1 -10 4 -10 6 0 11 -15 12 -32 0 -18 4 -42 8 -52 4
-11 3 -36 -3 -57 -5 -21 -7 -42 -3 -46 15 -14 30 18 29 62 0 50 23 64 34 20 3
-14 10 -25 14 -25 7 0 16 -39 22 -90 5 -42 -3 -120 -11 -115 -5 3 -15 31 -22
63 -7 31 -16 64 -20 72 -14 25 -11 -19 6 -83 8 -32 15 -92 15 -132 0 -43 4
-75 10 -75 6 0 10 14 10 32 0 23 3 29 11 21 7 -7 8 -31 4 -68 -5 -37 -11 -53
-17 -47 -7 7 -17 3 -30 -10 -24 -24 -18 -34 12 -18 25 13 23 15 39 -27 28 -69
-14 -162 -71 -163 -16 0 -28 -5 -28 -11 0 -17 68 -4 91 17 25 23 43 90 34 128
-4 17 -8 87 -9 156 -1 69 -5 134 -10 145 -6 15 -5 17 3 5 16 -24 23 -6 23 67
1 54 -5 81 -27 128 -34 72 -30 68 -58 71 -12 1 -24 3 -27 3 -6 1 -4 110 4 246
3 62 0 111 -10 155 -14 62 -21 97 -23 112 -1 4 -8 14 -17 22 -9 9 -18 41 -21
74 -6 63 -17 84 -39 75 -9 -3 -14 1 -14 12 0 12 -6 16 -20 12 -15 -4 -20 0
-20 16 -3 124 -4 129 -40 158 -19 16 -43 29 -54 29 -11 0 -29 11 -41 24 -22
26 -108 45 -103 22 2 -6 -1 -11 -7 -11 -5 0 -9 13 -7 29 2 24 0 27 -12 17 -12
-10 -18 -8 -31 12 -17 27 -80 56 -190 87 -79 23 -89 24 -80 11z m590 -428 c7
-9 11 -23 8 -29 -8 -21 -33 -4 -33 22 0 28 8 30 25 7z m55 -39 c0 -26 -17 -33
-26 -9 -8 20 3 48 16 40 5 -3 10 -17 10 -31z"/>
<path d="M1546 2600 c12 -5 25 -13 29 -19 3 -6 15 -16 26 -21 16 -9 19 -7 19
10 0 13 -7 20 -20 20 -11 0 -20 5 -20 10 0 6 -12 10 -27 9 -26 0 -26 -1 -7 -9z"/>
<path d="M1720 2592 c0 -7 -8 -9 -17 -5 -16 6 -17 5 -3 -11 9 -12 16 -14 18
-7 3 9 7 9 18 0 8 -7 14 -7 14 -1 0 5 -7 15 -15 22 -10 8 -15 9 -15 2z"/>
<path d="M1430 2571 c0 -11 9 -21 22 -24 31 -9 32 -4 3 21 -23 20 -25 21 -25
3z"/>
<path d="M2336 2038 c-4 -9 0 -30 8 -47 9 -16 16 -37 16 -45 0 -16 18 -31 26
-23 3 3 -2 20 -12 39 -10 18 -20 47 -24 63 -6 23 -9 26 -14 13z"/>
<path d="M1876 1944 c-9 -8 -16 -12 -16 -8 0 3 -7 1 -16 -7 -13 -10 -17 -10
-24 2 -8 12 -12 11 -27 -5 -17 -18 -17 -19 1 -12 28 10 48 -11 35 -37 -10 -17
-9 -19 7 -12 11 4 42 13 69 21 28 7 73 20 101 28 45 12 57 12 90 1 22 -8 49
-14 62 -15 13 0 32 -5 43 -11 18 -9 19 -8 10 9 -6 11 -26 23 -45 26 -19 4 -36
12 -38 18 -2 6 -38 13 -84 16 -68 4 -85 1 -117 -17 -38 -21 -38 -21 -32 -1 8
24 2 25 -19 4z"/>
<path d="M1047 1928 c-30 -7 -51 -18 -58 -30 -10 -18 -8 -19 28 -12 62 13 196
10 222 -5 22 -12 23 -12 17 5 -6 18 -5 18 8 2 7 -10 20 -18 29 -18 9 0 19 -4
22 -10 11 -17 43 -11 50 10 3 11 11 20 16 20 6 0 7 5 4 10 -11 17 -25 11 -25
-11 0 -14 -5 -19 -17 -17 -22 4 -24 29 -3 45 13 10 12 12 -5 12 -11 -1 -57 2
-103 5 -50 4 -91 2 -103 -4 -13 -7 -19 -7 -19 0 0 5 -3 9 -7 9 -5 -1 -29 -6
-56 -11z"/>
<path d="M767 1923 c-4 -7 -3 -14 3 -18 14 -9 12 -94 -3 -146 -8 -24 -12 -50
-9 -57 2 -7 0 -18 -6 -25 -11 -14 -23 -66 -51 -212 -17 -90 -18 -107 -5 -175
7 -41 13 -88 14 -103 0 -19 4 -27 13 -24 6 2 11 9 10 15 -1 5 -8 51 -14 101
-11 86 -10 97 14 199 59 238 85 415 62 419 -5 1 -12 9 -15 19 -4 12 -9 14 -13
7z"/>
<path d="M2361 1808 c0 -51 6 -131 13 -178 l12 -85 8 47 c5 26 12 45 17 43 16
-10 0 127 -17 146 -11 12 -15 32 -13 65 2 31 -1 49 -9 52 -9 3 -12 -21 -11
-90z"/>
<path d="M1975 1819 c-3 -4 7 -10 23 -13 15 -4 36 -10 47 -13 17 -5 18 -4 7 9
-14 17 -70 29 -77 17z"/>
<path d="M1091 1797 c-14 -6 -27 -19 -29 -27 -4 -12 -1 -11 15 3 11 9 25 17
31 17 6 0 14 5 17 10 8 13 -5 12 -34 -3z"/>
<path d="M1335 1775 c39 -32 65 -48 65 -38 0 9 -74 63 -87 63 -4 0 6 -11 22
-25z"/>
<path d="M1812 1767 c-23 -24 -30 -53 -10 -41 7 4 8 3 4 -4 -8 -13 4 -15 28
-6 21 8 21 24 0 24 -15 0 -15 2 0 25 21 31 7 33 -22 2z"/>
<path d="M1134 1766 c-42 -13 -93 -45 -94 -58 0 -4 20 -6 45 -5 34 2 45 6 45
18 0 16 27 47 33 38 2 -2 7 -17 13 -34 9 -27 13 -30 54 -30 40 0 45 3 57 33
13 31 12 33 -13 42 -34 13 -90 12 -140 -4z m116 -27 c0 -24 -23 -21 -28 4 -2
10 3 17 12 17 10 0 16 -9 16 -21z"/>
<path d="M1463 1754 c3 -11 8 -29 12 -41 3 -13 2 -23 -3 -23 -10 0 -22 -46
-15 -54 7 -7 39 26 46 47 4 10 0 31 -8 47 -18 35 -40 51 -32 24z"/>
<path d="M1913 1763 c-36 -5 -39 -13 -22 -60 9 -27 15 -31 49 -31 43 -1 50 5
59 52 l7 30 44 -42 c47 -44 60 -50 60 -29 0 35 -104 92 -155 85 -5 -1 -25 -3
-42 -5z m47 -44 c0 -10 -6 -19 -14 -19 -19 0 -30 31 -14 41 17 10 28 2 28 -22z"/>
<path d="M1316 1746 c3 -8 19 -20 35 -26 37 -16 30 -23 -22 -26 -23 -1 -46 -7
-51 -12 -6 -6 2 -9 24 -7 18 2 50 3 71 4 26 1 37 6 37 16 0 8 -5 15 -12 15 -6
0 -26 11 -44 25 -37 29 -46 31 -38 11z"/>
<path d="M1770 1695 c-7 -8 -11 -15 -9 -16 30 -7 98 -6 94 1 -4 6 -17 10 -31
10 -13 0 -24 5 -24 10 0 15 -16 12 -30 -5z"/>
<path d="M1387 1470 c-35 -28 -67 -82 -67 -113 0 -26 52 -77 78 -77 20 0 13
18 -8 25 -11 4 -27 17 -36 30 -13 20 -13 27 -1 57 8 18 22 39 31 47 17 14 41
51 33 51 -3 0 -16 -9 -30 -20z"/>
<path d="M1747 1449 c24 -40 53 -67 53 -49 0 21 -43 80 -58 80 -10 0 -8 -8 5
-31z"/>
<path d="M1790 1348 c0 -31 -11 -45 -43 -57 -15 -6 -27 -15 -27 -21 0 -12 48
5 72 27 19 17 25 73 8 73 -5 0 -10 -10 -10 -22z"/>
<path d="M1470 1305 c0 -10 88 -55 107 -55 12 0 24 7 27 15 5 13 0 15 -27 10
-25 -5 -37 -2 -51 14 -17 18 -56 30 -56 16z"/>
<path d="M2407 1243 c-4 -3 -7 -19 -7 -34 0 -15 -4 -30 -9 -34 -5 -3 -15 -31
-21 -63 -14 -71 -50 -182 -65 -202 -6 -8 -18 -34 -27 -57 -21 -56 -107 -175
-120 -166 -7 4 -8 1 -3 -7 8 -14 -88 -110 -111 -110 -8 0 -14 -4 -14 -8 0 -24
-168 -116 -195 -106 -10 4 -15 0 -15 -10 0 -9 -6 -16 -12 -14 -7 1 -35 -8 -63
-21 -27 -12 -62 -23 -77 -24 -14 -1 -24 -5 -22 -8 2 -4 -23 -21 -56 -38 -72
-38 -154 -55 -171 -35 -6 8 -17 14 -23 14 -6 0 -27 13 -46 29 -83 70 -122 100
-152 119 -18 12 -55 46 -83 76 -27 31 -54 56 -58 56 -16 0 -34 25 -29 40 3 8
1 12 -2 8 -18 -16 -110 107 -113 150 -1 19 -6 39 -12 45 -6 6 -11 19 -11 28 0
10 -4 19 -8 21 -12 5 -52 137 -45 154 3 8 0 14 -7 14 -8 0 -10 9 -6 25 4 14 2
25 -4 25 -5 0 -10 8 -10 18 -1 9 -8 28 -16 42 -42 68 17 -195 66 -295 15 -32
40 -108 40 -126 0 -27 214 -256 275 -294 17 -10 65 -47 107 -82 43 -35 81 -63
85 -63 4 0 21 -10 37 -23 26 -21 32 -22 80 -12 28 6 78 25 111 42 33 17 99 45
145 62 285 105 449 241 559 464 46 95 101 256 101 298 0 10 4 20 8 23 8 5 16
86 9 86 -2 0 -7 -3 -10 -7z"/>
<path d="M1603 1088 c-18 -6 -33 -15 -33 -19 0 -5 2 -9 4 -9 9 0 76 31 76 35
0 6 -8 5 -47 -7z"/>
<path d="M1277 1073 c-3 -5 -3 -13 1 -19 10 -13 63 -46 67 -42 10 10 -9 48
-24 48 -9 0 -22 5 -28 11 -6 6 -13 7 -16 2z"/>
<path d="M1815 1041 c-3 -5 -14 -7 -25 -4 -26 7 -26 -9 0 -25 16 -10 24 -10
40 0 11 7 20 16 20 19 0 11 -29 19 -35 10z"/>
<path d="M1456 1031 c-7 -11 -1 -12 104 -15 19 -1 40 -4 45 -8 12 -8 43 8 33
17 -12 12 -175 18 -182 6z"/>
<path d="M816 771 c-4 -5 -24 -12 -46 -16 -37 -6 -58 -20 -48 -31 3 -2 28 6
56 18 75 32 78 25 63 -114 -18 -157 -3 -431 25 -442 14 -5 13 16 -7 94 -17 68
-13 279 6 383 16 85 17 100 4 108 -18 11 -46 12 -53 0z"/>
<path d="M565 706 c-55 -13 -152 -38 -215 -56 -63 -17 -137 -36 -165 -42 -64
-13 -73 -22 -15 -15 46 5 101 18 340 81 74 20 145 36 157 36 12 0 25 5 28 10
9 14 -16 11 -130 -14z"/>
<path d="M2340 651 c0 -5 7 -11 15 -15 8 -3 12 -12 9 -21 -3 -8 -1 -15 6 -15
6 0 8 5 5 10 -3 6 1 10 10 10 8 0 18 -7 21 -15 4 -8 14 -15 23 -15 9 0 28 -11
43 -25 15 -14 30 -25 34 -25 7 0 129 -76 196 -121 15 -11 30 -19 34 -19 4 0
22 -11 40 -25 18 -14 35 -25 38 -25 2 0 42 -22 87 -50 45 -27 86 -50 91 -50
17 0 7 15 -20 31 -15 9 -88 53 -162 99 -74 45 -150 91 -169 102 -19 11 -64 39
-100 62 -153 100 -201 125 -201 107z"/>
<path d="M1369 413 c26 -19 40 -23 91 -28 19 -2 24 -1 10 2 -13 3 -47 13 -75
24 -43 16 -47 17 -26 2z"/>
<path d="M2342 351 c-37 -50 -108 -121 -170 -168 -10 -7 -13 -13 -9 -13 9 0
111 75 138 101 23 23 99 124 99 132 0 19 -20 1 -58 -52z"/>
<path d="M1215 206 c-47 -32 -91 -74 -110 -105 -5 -10 -4 -12 4 -7 6 4 34 0
61 -9 44 -15 50 -20 56 -51 4 -20 12 -34 21 -34 10 0 12 7 9 20 -3 11 -8 29
-11 39 -3 11 -19 26 -35 33 -17 7 -30 19 -30 26 0 7 -5 10 -12 6 -7 -3 1 6 17
20 66 58 105 63 105 14 0 -11 10 -20 25 -23 14 -3 36 -7 50 -10 14 -3 55 1 91
10 85 20 85 20 119 -13 45 -41 62 -79 47 -103 -14 -22 -12 -23 23 -7 22 10 28
9 35 -2 5 -8 12 -12 15 -8 10 9 -131 193 -163 212 -11 6 -13 4 -8 -11 9 -27
-26 -41 -123 -49 l-78 -7 -17 33 c-9 18 -16 39 -16 47 0 21 -21 15 -75 -21z"/>
<path d="M780 210 c0 -5 6 -10 13 -11 6 0 20 -2 30 -4 15 -3 16 -1 6 11 -13
16 -49 19 -49 4z"/>
<path d="M1402 198 c7 -20 72 -22 88 -4 11 14 6 16 -40 16 -37 0 -50 -4 -48
-12z"/>
<path d="M2112 160 c-20 -17 -30 -40 -17 -40 3 0 17 11 31 24 31 28 19 42 -14
16z"/>
</g>
</svg>
